# xmcd
#
# Track frame offsets: 
#        182
#        10875
#        22212
#        48337
#        60797
#        71175
#        83312
#        92345
#        101085
#        113505
#        126417
#        144175
#        156110
#        168330
#
# Disc length: 2409 seconds
#
# Revision: 6
# Processed by: cddbd v1.5.1PL0 Copyright (c) Steve Scherf et al.
# Submitted via: ExactAudioCopy v0.95a5
#
DISCID=a609670e
DTITLE=Various Artist - 28 Great Blues Ballads (1 of 2)
DYEAR=1993
DGENRE=Blues
TTITLE0=Howlin' Wolf - Little Red Rooster
TTITLE1=John Lee Hooker - Boom Boom
TTITLE2=John Mayall's Bluesbreakers - Riding On The L and N
TTITLE3=Elmore James - The Sky IS Crying
TTITLE4=Buddy Guy - First Time I Met The Blues
TTITLE5=Jimmy Rogers - Chicago Bound
TTITLE6=Eric Clapton, Jeff Beck, Jimmy Page - I Ain't Got You
TTITLE7=Sonny Boy Williamson - Checkin' Up On My Baby
TTITLE8=Muddy Waters - Got My Mojo Working
TTITLE9=Lowell Fulson - Trouble, Trouble
TTITLE10=Lightnin' Hopkins - Found My Baby Crying
TTITLE11=Jimmy Reed - Bright Lights, Big City
TTITLE12=Otis Spann - I'm In Love With You, Baby
TTITLE13=Albert King, Otis Rush - California Blues
EXTD=
EXTT0=
EXTT1=
EXTT2=
EXTT3=
EXTT4=
EXTT5=
EXTT6=
EXTT7=
EXTT8=
EXTT9=
EXTT10=
EXTT11=
EXTT12=
EXTT13=
PLAYORDER=
